<svg width="24" height="24" viewBox="0 0 24 24" fill="none" xmlns="http://www.w3.org/2000/svg">
<g id="whatsapp (1) 1" clip-path="url(#clip0_62_136)">
<g id="Group">
<path id="Vector" d="M0.589844 24.679L2.28571 18.5154C1.24298 16.712 0.687242 14.6632 0.692971 12.5688C0.692971 6.00572 6.05558 0.669678 12.6443 0.669678C15.8412 0.669678 18.8433 1.9081 21.095 4.15665C23.3523 6.40521 24.5956 9.39567 24.5898 12.5745C24.5898 19.1375 19.2272 24.4735 12.6385 24.4735H12.6328C10.6333 24.4735 8.66814 23.9713 6.9207 23.024L0.589844 24.679ZM7.21863 20.8667L7.57957 21.0836C9.10356 21.9853 10.851 22.459 12.6328 22.4647H12.6385C18.11 22.4647 22.5674 18.0304 22.5674 12.5745C22.5674 9.93213 21.5361 7.44959 19.6626 5.57769C17.7892 3.7058 15.2912 2.67854 12.6385 2.67854C7.16133 2.67854 2.70395 7.11287 2.70395 12.5688C2.70395 14.4349 3.22532 16.2555 4.22221 17.8306L4.45711 18.2073L3.45449 21.854L7.21863 20.8667Z" fill="black" fill-opacity="0.24"/>
<path id="Vector_2" d="M1.13184 24.0427L2.75007 18.1642C1.75423 16.4452 1.22802 14.4894 1.22802 12.4943C1.22802 6.23812 6.34301 1.14868 12.6179 1.14868C15.6677 1.14868 18.525 2.33227 20.6751 4.47401C22.8252 6.61575 24.0078 9.46764 24.0078 12.4999C24.0078 18.756 18.8928 23.8455 12.6179 23.8455H12.6123C10.7055 23.8455 8.8326 23.3664 7.1691 22.4646L1.13184 24.0427Z" fill="url(#paint0_linear_62_136)"/>
<g id="Group_2">
<path id="Vector_3" d="M0.71875 24.4547L2.39357 18.3676C1.36378 16.5866 0.814939 14.5632 0.820597 12.4948C0.820597 6.01321 6.11664 0.743408 12.6235 0.743408C15.7808 0.743408 18.7457 1.96645 20.9693 4.1871C23.1986 6.40774 24.4265 9.36108 24.4208 12.5004C24.4208 18.982 19.1248 24.2518 12.6179 24.2518H12.6122C10.6375 24.2518 8.69676 23.7558 6.97102 22.8202L0.71875 24.4547ZM7.26525 20.6897L7.62171 20.9039C9.12679 21.7944 10.8525 22.2622 12.6122 22.2679H12.6179C18.0214 22.2679 22.4235 17.8886 22.4235 12.5004C22.4235 9.89088 21.405 7.43915 19.5548 5.5905C17.7046 3.74184 15.2376 2.72733 12.6179 2.72733C7.20867 2.72733 2.80661 7.10662 2.80661 12.4948C2.80661 14.3378 3.32151 16.1357 4.30603 17.6913L4.53801 18.0633L3.54783 21.6648L7.26525 20.6897Z" fill="white"/>
<path id="Vector_4" d="M9.67007 7.57392C9.4494 7.08358 9.21742 7.07231 9.00806 7.06667C8.83832 7.06103 8.64028 7.06104 8.44225 7.06104C8.24421 7.06104 7.92735 7.13431 7.65576 7.42738C7.38417 7.72046 6.62598 8.43062 6.62598 9.87911C6.62598 11.322 7.68405 12.7197 7.83117 12.917C7.97828 13.1143 9.87376 16.1747 12.8669 17.3526C15.3565 18.3333 15.8658 18.1361 16.4033 18.0853C16.9465 18.0346 18.146 17.3752 18.395 16.6876C18.6383 16 18.6383 15.4138 18.5647 15.2898C18.4912 15.1658 18.2931 15.0925 17.9989 14.946C17.7047 14.7995 16.2562 14.0893 15.9846 13.9879C15.713 13.8864 15.515 13.8413 15.3226 14.1344C15.1245 14.4275 14.5587 15.0869 14.389 15.2842C14.2192 15.4814 14.0438 15.504 13.7496 15.3574C13.4554 15.2109 12.5048 14.9009 11.3788 13.8977C10.5018 13.1199 9.90771 12.1561 9.73797 11.863C9.56822 11.57 9.72099 11.4121 9.86811 11.2656C9.99824 11.136 10.1623 10.9218 10.3094 10.7527C10.4566 10.5836 10.5075 10.4596 10.6037 10.2624C10.6999 10.0651 10.6546 9.89602 10.581 9.74948C10.5075 9.60294 9.93035 8.15445 9.67007 7.57392Z" fill="white"/>
</g>
</g>
</g>
<defs>
<linearGradient id="paint0_linear_62_136" x1="12.5695" y1="24.0411" x2="12.5695" y2="1.1474" gradientUnits="userSpaceOnUse">
<stop stop-color="#20B038"/>
<stop offset="1" stop-color="#60D66A"/>
</linearGradient>
<clipPath id="clip0_62_136">
<rect width="24" height="24" fill="white"/>
</clipPath>
</defs>
</svg>
