<svg width="24" height="24" viewBox="0 0 24 24" fill="none" xmlns="http://www.w3.org/2000/svg">
<g id="viber (1) 1" clip-path="url(#clip0_64_207)">
<path id="Vector" d="M23.8857 11.9594C23.8857 5.43452 18.5387 0.14502 11.9428 0.14502C5.34699 0.14502 0 5.43452 0 11.9594C0 18.4844 5.34699 23.7739 11.9428 23.7739C18.5387 23.7739 23.8857 18.4844 23.8857 11.9594Z" fill="#754A91"/>
<g id="Group">
<path id="Vector_2" d="M9.15511 16.7895C9.15511 16.5914 9.15511 16.3933 9.15511 16.1953C9.15651 16.1872 9.15623 16.1789 9.15424 16.1709C9.15226 16.1629 9.14864 16.1554 9.14357 16.1489C9.13851 16.1423 9.13215 16.1368 9.12484 16.1328C9.11757 16.1288 9.10948 16.1262 9.10116 16.1254C8.60031 15.9859 8.13805 15.7375 7.74881 15.3985C7.46519 15.1456 7.22905 14.8459 7.05114 14.513C6.80037 14.0322 6.63349 13.5136 6.55739 12.9787C6.46311 12.3078 6.43035 11.6299 6.45954 10.9532C6.46596 10.6377 6.48239 10.3259 6.51899 10.0104C6.5773 9.4109 6.7316 8.82414 6.97617 8.2717C7.27815 7.59245 7.82603 7.04683 8.51412 6.74004C8.98285 6.52979 9.47597 6.37632 9.98261 6.28298C10.4794 6.19072 10.9824 6.13413 11.4876 6.11359C11.943 6.09779 12.399 6.10437 12.8537 6.1333C13.5045 6.16022 14.1495 6.2659 14.7739 6.44788C15.2368 6.57867 15.6772 6.77653 16.0805 7.0349C16.4735 7.29932 16.7913 7.65738 17.004 8.07542C17.2541 8.56368 17.4242 9.08755 17.5078 9.6277C17.5622 9.9484 17.5979 10.2719 17.6148 10.5965C17.6386 10.9989 17.6358 11.4031 17.6203 11.8038C17.6047 12.2043 17.57 12.5933 17.5197 12.9859C17.4562 13.5751 17.2714 14.1455 16.9766 14.6627C16.5929 15.317 15.9782 15.8111 15.2484 16.0519C14.7495 16.2232 14.2342 16.345 13.7105 16.4158C13.3273 16.4677 12.9433 16.5054 12.5574 16.5206C12.2621 16.5341 11.9668 16.5305 11.6714 16.526C11.5041 16.526 11.3377 16.5098 11.1713 16.4955C11.1549 16.4925 11.1381 16.4943 11.1228 16.5007C11.1075 16.507 11.0944 16.5177 11.0853 16.5314C10.7488 16.9275 10.3996 17.3129 10.0475 17.6965C9.98339 17.7664 9.90915 17.8268 9.82716 17.8757C9.77334 17.9103 9.71196 17.932 9.64799 17.9391C9.58403 17.9462 9.51925 17.9384 9.45891 17.9164C9.39857 17.8944 9.34437 17.8589 9.30064 17.8126C9.25692 17.7663 9.22491 17.7105 9.20723 17.6498C9.17237 17.5421 9.15508 17.4295 9.15602 17.3165C9.15511 17.139 9.15511 16.9642 9.15511 16.7895ZM9.56198 17.5414L9.60497 17.502L10.3685 16.6712C10.6623 16.3515 10.9558 16.0315 11.249 15.7113C11.2634 15.6918 11.2829 15.6763 11.3053 15.6666C11.3278 15.6568 11.3526 15.6531 11.377 15.6557C11.4767 15.6656 11.5763 15.6692 11.6769 15.6701C12.0244 15.6701 12.3718 15.6701 12.7193 15.6459C13.0348 15.6217 13.3493 15.584 13.662 15.5357C13.9987 15.4782 14.332 15.4031 14.6605 15.3107C15.392 15.118 15.958 14.7057 16.3137 14.0381C16.5237 13.6275 16.6554 13.1829 16.7023 12.726C16.7579 12.2953 16.7911 11.8622 16.8019 11.4282C16.8181 10.8831 16.7802 10.3377 16.6885 9.79978C16.625 9.41005 16.5107 9.02992 16.3484 8.66874C16.1418 8.22061 15.8492 7.84959 15.3984 7.61119C14.7071 7.24551 13.9592 7.08241 13.1884 6.99906C12.9698 6.97575 12.7513 6.96321 12.5319 6.95514C12.0825 6.93243 11.6322 6.93483 11.1832 6.96231C10.8602 6.98579 10.539 7.0283 10.2213 7.08959C9.75396 7.17307 9.30192 7.32409 8.87986 7.53769C8.63519 7.65888 8.41322 7.81978 8.22336 8.01359C7.91564 8.3507 7.68993 8.75181 7.56317 9.18675C7.41284 9.6933 7.33077 10.217 7.31905 10.7444C7.28963 11.2718 7.29636 11.8006 7.33917 12.3271C7.3658 12.6405 7.41933 12.9511 7.49918 13.2556C7.61798 13.7302 7.84846 14.171 8.17215 14.5426C8.52164 14.9218 8.9733 15.1964 9.47511 15.3349C9.53822 15.3537 9.56657 15.3752 9.56657 15.4451C9.56107 15.7032 9.56657 15.9614 9.56657 16.2195L9.56198 17.5414Z" fill="white"/>
<path id="Vector_3" d="M8.92169 9.53641C8.91527 9.34015 9.02408 9.19765 9.15577 9.06947C9.32941 8.90643 9.52073 8.76248 9.72632 8.64018C9.82007 8.58351 9.93154 8.56194 10.0402 8.57938C10.1489 8.59683 10.2475 8.65216 10.3179 8.7352C10.5667 8.99146 10.7893 9.27092 10.9827 9.56957C11.0784 9.70392 11.1507 9.85293 11.1966 10.0105C11.215 10.072 11.2162 10.1372 11.2001 10.1993C11.184 10.2614 11.1512 10.3182 11.1052 10.3636C10.9997 10.4651 10.8873 10.5595 10.7687 10.646C10.709 10.6926 10.6645 10.7555 10.641 10.8267C10.6174 10.898 10.6157 10.9744 10.6361 11.0466C10.7094 11.3854 10.8753 11.6983 11.1162 11.9518C11.4088 12.302 11.786 12.5752 12.2134 12.7467C12.3184 12.7996 12.4388 12.8158 12.5545 12.7924C12.6178 12.7755 12.6741 12.7394 12.7154 12.6893C12.7794 12.6096 12.8489 12.5325 12.9065 12.4474C12.9812 12.3412 13.0953 12.2678 13.2244 12.2428C13.3536 12.2179 13.4875 12.2434 13.5978 12.3138C13.9077 12.4901 14.2003 12.6941 14.4719 12.9233C14.5359 12.977 14.6026 13.029 14.6666 13.0837C14.7424 13.1403 14.7971 13.2197 14.8224 13.3097C14.8476 13.3997 14.842 13.4954 14.8065 13.582C14.75 13.7277 14.6677 13.8624 14.5633 13.9799C14.4336 14.1566 14.2684 14.3055 14.0778 14.4173C13.9867 14.4697 13.8843 14.5005 13.7789 14.5072C13.6735 14.5139 13.5679 14.4963 13.4707 14.4558C12.7309 14.1639 12.0396 13.7655 11.4197 13.2737C10.8134 12.7845 10.2835 12.2108 9.84702 11.5709C9.47972 11.0411 9.18749 10.465 8.97838 9.85817C8.9561 9.78477 8.93779 9.71027 8.92352 9.63499C8.91945 9.6023 8.91882 9.56926 8.92169 9.53641Z" fill="white"/>
<path id="Vector_4" d="M12.0792 8.5828C12.6981 8.59403 13.2934 8.8178 13.7613 9.21514C14.2292 9.61248 14.5399 10.1582 14.6394 10.7571C14.6794 10.9748 14.7009 11.1954 14.7034 11.4167C14.7034 11.4687 14.6897 11.5063 14.633 11.5117C14.5763 11.5171 14.5617 11.4696 14.5617 11.4221C14.5702 10.9745 14.4765 10.5309 14.2874 10.1234C14.1281 9.78866 13.8923 9.49442 13.5981 9.26358C13.3039 9.03274 12.9593 8.87155 12.5912 8.79253C12.3966 8.74835 12.1976 8.72551 11.9978 8.7244C11.9783 8.72474 11.9589 8.72234 11.9402 8.71725C11.9242 8.71284 11.9106 8.70252 11.9023 8.68848C11.8939 8.67444 11.8914 8.65774 11.8954 8.64195C11.8955 8.63447 11.8971 8.62706 11.9002 8.6202C11.9033 8.61333 11.9077 8.60714 11.9132 8.60198C11.9188 8.59679 11.9253 8.59276 11.9324 8.59008C11.9396 8.58742 11.9472 8.58616 11.9548 8.58639C11.996 8.58102 12.038 8.5828 12.0792 8.5828Z" fill="white"/>
<path id="Vector_5" d="M13.844 11.0132C13.841 10.7642 13.7784 10.5194 13.6614 10.2984C13.5444 10.0774 13.3761 9.88634 13.1702 9.74056C12.9298 9.57506 12.6503 9.47235 12.3582 9.44214C12.3088 9.43584 12.2594 9.43315 12.2092 9.42779C12.1589 9.42239 12.1287 9.4018 12.1333 9.35161C12.1378 9.30141 12.1698 9.28348 12.2247 9.28706C13.0348 9.33548 13.7243 9.78448 13.9364 10.6207C13.9752 10.7819 13.9945 10.947 13.994 11.1127V11.1575C13.994 11.2023 13.9648 11.2319 13.9199 11.231C13.91 11.2307 13.9002 11.2284 13.8912 11.2242C13.8822 11.2201 13.8742 11.2142 13.8676 11.2069C13.861 11.1996 13.856 11.191 13.8529 11.1818C13.8498 11.1725 13.8487 11.1627 13.8495 11.153C13.8422 11.1109 13.844 11.0679 13.844 11.0132Z" fill="white"/>
<path id="Vector_6" d="M12.4243 10.0148C12.8687 10.0444 13.1786 10.2577 13.2637 10.7211C13.274 10.7804 13.2813 10.8403 13.2856 10.9003C13.2856 10.9487 13.2746 10.9899 13.2207 10.9899C13.1668 10.9899 13.1485 10.9541 13.1466 10.9003C13.1461 10.7227 13.0903 10.5495 12.9866 10.4038C12.8777 10.2719 12.7212 10.1859 12.5495 10.1636C12.5112 10.1566 12.4724 10.1518 12.4334 10.1493C12.3694 10.1493 12.3338 10.1179 12.342 10.0695C12.3502 10.0211 12.3886 10.0121 12.4243 10.0148Z" fill="white"/>
</g>
</g>
<defs>
<clipPath id="clip0_64_207">
<rect width="24" height="24" fill="white"/>
</clipPath>
</defs>
</svg>
