<svg width="26" height="26" viewBox="0 0 26 26" fill="none" xmlns="http://www.w3.org/2000/svg">
<g id="website-click (1) 1">
<path id="Vector" d="M16.2213 22.6362C14.1958 23.318 12.0063 23.3396 9.96769 22.6979C7.92912 22.0563 6.14664 20.7845 4.87673 19.0656C3.60681 17.3467 2.91492 15.2692 2.90062 13.1321C2.88631 10.995 3.55032 8.9084 4.79711 7.17261C6.04391 5.43683 7.8092 4.1413 9.83899 3.47244C11.8688 2.80358 14.0584 2.79587 16.0929 3.45041C18.1273 4.10496 19.9017 5.38802 21.1607 7.11498C22.4197 8.84194 23.0984 10.9238 23.0991 13.0609C23.0665 13.8801 22.9673 14.6953 22.8026 15.4984" stroke="black"/>
<path id="Vector_2" d="M15.3806 20.7593C14.6541 21.5847 13.8576 22.3459 13 23.0343" stroke="black"/>
<path id="Vector_3" d="M13 2.84375C15.7261 5.22556 17.413 8.57885 17.7003 12.1875C17.7593 12.8426 17.7715 13.501 17.7369 14.1578" stroke="black"/>
<path id="Vector_4" d="M12.8741 2.84375C11.3949 4.13298 10.2067 5.72179 9.38793 7.50492C8.5692 9.28806 8.13872 11.2248 8.125 13.1869C8.125 19.7681 11.0825 21.7181 12.8619 23.0344" stroke="black"/>
<path id="Vector_5" d="M4.21289 8.08447H21.836" stroke="black"/>
<path id="Vector_6" d="M13 2.8396V23.0343" stroke="black"/>
<path id="Vector_7" d="M4.48926 18.4763H15.0477" stroke="black"/>
<path id="Vector_8" d="M2.90039 13.1868L23.0991 12.939" stroke="black"/>
<path id="Vector_9" d="M21.7632 23.1563L23.5629 21.3526L20.3129 18.1026L22.1613 16.9204C22.1882 16.9045 22.2097 16.8808 22.2229 16.8524C22.236 16.824 22.2402 16.7923 22.2349 16.7614C22.2296 16.7306 22.2151 16.7021 22.1933 16.6797C22.1714 16.6573 22.1433 16.6421 22.1126 16.636L15.901 15.1817C15.8753 15.1764 15.8488 15.1776 15.8237 15.1852C15.7987 15.1927 15.7759 15.2064 15.7573 15.2249C15.7388 15.2434 15.7252 15.2662 15.7177 15.2913C15.7101 15.3163 15.7089 15.3429 15.7141 15.3685L17.0629 21.6979C17.0694 21.7287 17.0848 21.7568 17.1074 21.7788C17.1299 21.8007 17.1584 21.8154 17.1894 21.8211C17.2203 21.8268 17.2522 21.8231 17.2811 21.8106C17.3099 21.798 17.3344 21.7772 17.3513 21.7507L18.5132 19.9063L21.7632 23.1563Z" stroke="black"/>
</g>
</svg>
