<svg width="23" height="23" viewBox="0 0 23 23" fill="none" xmlns="http://www.w3.org/2000/svg">
<path id="Vector" d="M18.9 22.0129C18.8 22.0129 18.7 22.0129 18.6 22.0129C15.4 21.6357 12.2 20.5984 9.5 18.9952C7 17.4863 4.8 15.4116 3.2 13.054C1.4 10.5078 0.3 7.49011 0 4.47238C0 3.71794 0.2 2.96351 0.7 2.39769C1.2 1.83186 1.9 1.45465 2.7 1.36034C2.8 1.36034 2.9 1.36034 3 1.36034H6C7.5 1.36034 8.8 2.39769 9 3.81225C9.1 4.66098 9.3 5.50972 9.6 6.26415C10 7.3015 9.7 8.43315 8.9 9.28188L8.2 9.94201C9.4 11.6395 10.9 13.1483 12.8 14.28L13.5 13.6199C14.3 12.8654 15.6 12.5825 16.7 12.9597C17.5 13.2427 18.4 13.4313 19.3 13.5256C20.8 13.7142 21.9 14.9401 21.9 16.3547V19.1838C21.9 19.9382 21.6 20.6927 21 21.1642C20.4 21.6357 19.7 22.0129 18.9 22.0129ZM6 3.24642H3C2.7 3.24642 2.4 3.43503 2.2 3.62364C2.1 3.81225 2 4.00086 2 4.28377C2.3 7.01858 3.3 9.6591 4.9 12.0167C6.4 14.1857 8.3 16.0718 10.6 17.392C13.1 18.9009 15.9 19.8439 18.8 20.1268C19.2 20.1268 19.4 20.0325 19.6 19.8439C19.8 19.6553 19.9 19.4667 19.9 19.1838V16.3547C19.9 15.8832 19.5 15.5059 19 15.4116C18 15.3173 17 15.0344 16 14.6572C15.6 14.5629 15.2 14.5629 14.9 14.8458L13.6 16.0718C13.3 16.3547 12.8 16.449 12.4 16.2604C9.7 14.8458 7.5 12.7711 6 10.2249C5.9 9.84771 6 9.37619 6.3 9.09327L7.6 7.86732C7.8 7.67871 7.9 7.20719 7.8 6.92428C7.4 5.98124 7.2 5.0382 7 4.09516C7 3.62364 6.5 3.24642 6 3.24642ZM17.9 9.84771C17.4 9.84771 17 9.56479 16.9 9.09327C16.6 7.58441 15.3 6.45276 13.7 6.07554C13.2 5.98124 12.8 5.50972 12.9 4.9439C13 4.47238 13.5 4.09516 14.1 4.18946C16.5 4.66098 18.4 6.35846 18.8 8.62175C18.9 9.09327 18.6 9.6591 18 9.7534C18 9.7534 18 9.84771 17.9 9.84771ZM21.9 9.7534C21.4 9.7534 21 9.37619 20.9 8.90467C20.5 5.41542 17.6 2.6806 13.8 2.20908C13.3 2.11477 12.9 1.64325 12.9 1.17173C12.9 0.700214 13.5 0.322998 14 0.322998C18.7 0.794518 22.3 4.18946 22.8 8.62175C22.9 9.09327 22.5 9.56479 21.9 9.6591C22 9.7534 21.9 9.7534 21.9 9.7534Z" fill="black"/>
</svg>
