<svg width="26" height="26" viewBox="0 0 26 26" fill="none" xmlns="http://www.w3.org/2000/svg">
<g id="mail">
<path id="Vector (Stroke)" fill-rule="evenodd" clip-rule="evenodd" d="M4.33301 5.41667C3.73965 5.41667 3.24967 5.90664 3.24967 6.5V19.5C3.24967 20.0934 3.73965 20.5833 4.33301 20.5833H21.6663C22.2597 20.5833 22.7497 20.0934 22.7497 19.5V6.5C22.7497 5.90664 22.2597 5.41667 21.6663 5.41667H4.33301ZM1.08301 6.5C1.08301 4.71002 2.54303 3.25 4.33301 3.25H21.6663C23.4563 3.25 24.9163 4.71002 24.9163 6.5V19.5C24.9163 21.29 23.4563 22.75 21.6663 22.75H4.33301C2.54303 22.75 1.08301 21.29 1.08301 19.5V6.5Z" fill="black"/>
<path id="Vector (Stroke)_2" fill-rule="evenodd" clip-rule="evenodd" d="M1.27893 5.87868C1.62204 5.38853 2.29753 5.26932 2.78769 5.61243L12.9998 12.7609L23.2119 5.61243C23.702 5.26932 24.3775 5.38853 24.7206 5.87868C25.0637 6.36883 24.9445 7.04432 24.4544 7.38743L13.621 14.9708C13.248 15.2319 12.7515 15.2319 12.3785 14.9708L1.54518 7.38743C1.05503 7.04432 0.935826 6.36883 1.27893 5.87868Z" fill="black"/>
</g>
</svg>
