<svg width="24" height="24" viewBox="0 0 24 24" fill="none" xmlns="http://www.w3.org/2000/svg">
<g id="telegram 1">
<path id="Vector" d="M12 22C17.5228 22 22 17.5228 22 12C22 6.47715 17.5228 2 12 2C6.47715 2 2 6.47715 2 12C2 17.5228 6.47715 22 12 22Z" fill="url(#paint0_linear_64_186)"/>
<path id="Vector_2" d="M2.006 11.75C2.004 11.8335 2 11.916 2 12C2 17.54 6.46 22 12 22C17.54 22 22 17.54 22 12C22 11.916 21.996 11.8335 21.994 11.75C21.862 17.1735 17.454 21.5 12 21.5C6.544 21.5 2.138 17.1735 2.006 11.75Z" fill="#0C69CF"/>
<path id="Vector_3" opacity="0.2" d="M16.6484 7.60254L5.61328 12.0908L9.73633 16.2148C9.67107 16.2998 9.60303 16.3891 9.53809 16.4736L14.6582 21.5938C16.6082 21.0464 18.346 19.9198 19.6417 18.3631C20.9373 16.8064 21.7297 14.8929 21.9141 12.876L16.6484 7.60254Z" fill="url(#paint1_linear_64_186)"/>
<path id="Vector_4" d="M8.44043 13.1402L9.35471 16.1189C9.35471 16.1189 9.45114 16.4104 9.53926 16.4792C9.62738 16.548 9.71613 16.555 9.71613 16.555L15.8171 8.70532L14.8225 8.37915L8.44043 13.1402Z" fill="#BED6E8"/>
<path id="Vector_5" d="M9.939 13.7805L9.63086 16.478C9.63086 16.478 9.62946 16.5424 9.71852 16.5577C9.80758 16.573 9.89079 16.4778 9.89079 16.4778L11.5932 14.9816L9.939 13.7805Z" fill="#9DBFD6"/>
<path id="Vector_6" d="M5.73937 11.5053C5.73937 11.5053 5.48796 11.632 5.50045 11.8514C5.51294 12.0709 5.73934 12.1887 5.73934 12.1887L8.44027 13.1401L14.6484 9.13581C14.6484 9.13581 14.7684 9.08337 14.8261 9.15329C14.8837 9.22322 14.7821 9.31627 14.7821 9.31627L9.93928 13.7805L14.0784 16.859C14.0784 16.859 14.2987 17.0189 14.5421 16.9981C14.7854 16.9773 14.9175 16.6573 14.9175 16.6573L15.0713 16.1088L15.6028 13.94L16.0331 11.965L16.279 10.7476L16.6131 8.78185L16.7389 8.02954C16.7389 8.02954 16.8267 7.71389 16.6043 7.5701C16.3819 7.42631 16.0703 7.54828 16.0703 7.54828L5.73937 11.5053Z" fill="#F1F7FC"/>
</g>
<defs>
<linearGradient id="paint0_linear_64_186" x1="-10" y1="22" x2="-10" y2="2" gradientUnits="userSpaceOnUse">
<stop stop-color="#197CF1"/>
<stop offset="1" stop-color="#20BCFA"/>
</linearGradient>
<linearGradient id="paint1_linear_64_186" x1="9.5" y1="9.5" x2="22" y2="22" gradientUnits="userSpaceOnUse">
<stop stop-color="#292C2F"/>
<stop offset="1" stop-color="#292C2F" stop-opacity="0"/>
</linearGradient>
</defs>
</svg>
