<svg width="24" height="24" viewBox="0 0 24 24" fill="none" xmlns="http://www.w3.org/2000/svg">
<g id="Group 15">
<g id="Group">
<path id="Vector" d="M12 24C18.6274 24 24 18.6274 24 12C24 5.37258 18.6274 0 12 0C5.37258 0 0 5.37258 0 12C0 18.6274 5.37258 24 12 24Z" fill="#5B68C0"/>
<path id="Vector_2" fill-rule="evenodd" clip-rule="evenodd" d="M13.6156 6.80175C13.6156 6.80175 11.8344 6.68538 11.3778 8.37964C11.3778 8.37964 11.2124 8.82412 11.2351 9.91898L9.59961 9.92371V11.356L11.2351 11.3512V17.2H13.3199V11.356L14.9734 11.356V9.91898L13.3199 9.91898V9.13848C13.3199 8.63244 13.601 8.14849 14.4232 8.14849H15.1996V6.80175H13.6156Z" fill="white"/>
</g>
</g>
</svg>
