<svg width="23" height="23" viewBox="0 0 23 23" fill="none" xmlns="http://www.w3.org/2000/svg">
<path id="Vector" d="M18.9 22.0128C18.8 22.0128 18.7 22.0128 18.6 22.0128C15.4 21.6356 12.2 20.5982 9.5 18.9951C7 17.4862 4.8 15.4115 3.2 13.0539C1.4 10.5077 0.3 7.48998 0 4.47225C0 3.71782 0.2 2.96339 0.7 2.39756C1.2 1.83174 1.9 1.45452 2.7 1.36022C2.8 1.36022 2.9 1.36022 3 1.36022H6C7.5 1.36022 8.8 2.39756 9 3.81213C9.1 4.66086 9.3 5.5096 9.6 6.26403C10 7.30137 9.7 8.43302 8.9 9.28176L8.2 9.94189C9.4 11.6394 10.9 13.1482 12.8 14.2799L13.5 13.6197C14.3 12.8653 15.6 12.5824 16.7 12.9596C17.5 13.2425 18.4 13.4311 19.3 13.5254C20.8 13.714 21.9 14.94 21.9 16.3546V19.1837C21.9 19.9381 21.6 20.6925 21 21.1641C20.4 21.6356 19.7 22.0128 18.9 22.0128ZM6 3.2463H3C2.7 3.2463 2.4 3.43491 2.2 3.62352C2.1 3.81213 2 4.00073 2 4.28365C2.3 7.01846 3.3 9.65898 4.9 12.0166C6.4 14.1856 8.3 16.0717 10.6 17.3919C13.1 18.9008 15.9 19.8438 18.8 20.1267C19.2 20.1267 19.4 20.0324 19.6 19.8438C19.8 19.6552 19.9 19.4666 19.9 19.1837V16.3546C19.9 15.883 19.5 15.5058 19 15.4115C18 15.3172 17 15.0343 16 14.6571C15.6 14.5628 15.2 14.5628 14.9 14.8457L13.6 16.0717C13.3 16.3546 12.8 16.4489 12.4 16.2603C9.7 14.8457 7.5 12.771 6 10.2248C5.9 9.84758 6 9.37606 6.3 9.09315L7.6 7.8672C7.8 7.67859 7.9 7.20707 7.8 6.92416C7.4 5.98112 7.2 5.03808 7 4.09504C7 3.62352 6.5 3.2463 6 3.2463ZM17.9 9.84758C17.4 9.84758 17 9.56467 16.9 9.09315C16.6 7.58429 15.3 6.45264 13.7 6.07542C13.2 5.98112 12.8 5.5096 12.9 4.94377C13 4.47225 13.5 4.09504 14.1 4.18934C16.5 4.66086 18.4 6.35833 18.8 8.62163C18.9 9.09315 18.6 9.65898 18 9.75328C18 9.75328 18 9.84758 17.9 9.84758ZM21.9 9.75328C21.4 9.75328 21 9.37606 20.9 8.90454C20.5 5.41529 17.6 2.68048 13.8 2.20896C13.3 2.11465 12.9 1.64313 12.9 1.17161C12.9 0.700092 13.5 0.322876 14 0.322876C18.7 0.794396 22.3 4.18934 22.8 8.62163C22.9 9.09315 22.5 9.56467 21.9 9.65898C22 9.75328 21.9 9.75328 21.9 9.75328Z" fill="black"/>
</svg>
