<svg width="100" height="56" viewBox="0 0 100 56" fill="none" xmlns="http://www.w3.org/2000/svg">
<g id="logo">
<g id="Group">
<path id="Vector" d="M40.934 13.7922L41.3813 15.4431L41.8285 17.0953L39.0635 16.9571L36.2998 16.819L38.6163 15.3063L40.934 13.7922Z" fill="#FFFF00"/>
<path id="Vector_2" d="M57.4391 14.8103C58.0494 11.4429 56.3249 7.96619 53.064 6.49423C49.2203 4.75919 44.6979 6.46924 42.9642 10.3142C42.0565 12.3255 42.0934 14.5223 42.8839 16.4073C44.6466 16.3915 46.4079 16.3244 48.1653 16.1942C51.2816 15.9613 54.3926 15.522 57.4378 14.8103H57.4391Z" fill="#FFFF00"/>
<path id="Vector_3" d="M49.1793 4.58959L47.5272 5.03683L45.875 5.48408L46.3144 3.83059L46.7524 2.17578L47.9652 3.38334L49.1793 4.58959Z" fill="#FFFF00"/>
<path id="Vector_4" d="M41.8597 9.37244L41.4216 11.0272L40.9836 12.6807L39.7695 11.4745L38.5566 10.2669L40.2088 9.81968L41.8597 9.37244Z" fill="#FFFF00"/>
<path id="Vector_5" d="M56.9667 8.54899L55.7671 7.32959L54.5674 6.10888L56.2235 5.68005L57.8809 5.25122L57.4232 6.90076L56.9667 8.54899Z" fill="#FFFF00"/>
<path id="Vector_6" d="M53.6052 5.52609L51.9517 5.08806L50.2969 4.65002L51.7991 2.32435L53.3 0L53.4526 2.76239L53.6052 5.52609Z" fill="#FFFF00"/>
<path id="Vector_7" d="M44.8834 6.00101L43.6772 7.21384L42.4709 8.42797L41.2081 5.96418L39.9453 3.50171L42.4144 4.75136L44.8834 6.00101Z" fill="#FFFF00"/>
<path id="Vector_8" d="M58.3586 12.8477L57.9298 11.1903L57.501 9.53418L60.2647 9.70255L63.0271 9.87224L60.6935 11.36L58.3586 12.8477Z" fill="#FFFF00"/>
</g>
<path id="Vector_9" d="M52.336 16.0824L27.2666 12.4137L42.8728 20.1484L52.336 16.0824Z" fill="#1E8AD7"/>
<path id="Vector_10" d="M27.6704 13.1741L21.167 20.3379H22.6284L27.9677 13.3411L27.6704 13.1741Z" fill="#1E8AD7"/>
<path id="Vector_11" d="M12.3673 17.6504L0.542969 30.4468H3.53424L12.7567 17.9227L12.3673 17.6504Z" fill="#1E8AD7"/>
<path id="Vector_12" d="M74.2608 6.85083L99.9997 31.0283H95.1457L73.5215 7.36911L74.2608 6.85083Z" fill="#1E8AD7"/>
<path id="Vector_13" d="M15.1738 29.3827L16.9654 29.4208V27.6384H15.1738V29.3827Z" fill="#1E9CD7"/>
<path id="Vector_14" d="M16.9654 27.5357V25.6494L15.1738 25.7112V27.5357H16.9654Z" fill="#1E9CD7"/>
<path id="Vector_15" d="M13.5244 27.6384V29.3472L15.0306 29.38V27.6384H13.5244Z" fill="#1E9CD7"/>
<path id="Vector_16" d="M15.0306 25.7166L13.5244 25.7679V27.5358H15.0306V25.7166Z" fill="#1E9CD7"/>
<g id="Group_2">
<path id="Vector_17" d="M67.79 26.444V29.1682L71.4522 29.1169V26.444H67.79Z" fill="#1E9CD7"/>
<path id="Vector_18" d="M74.882 26.0651V23.2014L71.9775 23.1475V26.0651H74.882Z" fill="#1E9CD7"/>
<path id="Vector_19" d="M71.4522 23.137L67.79 23.0686V24.6024V26.0651H71.4522V23.137Z" fill="#1E9CD7"/>
<path id="Vector_20" d="M71.9775 29.1103L74.882 29.0682V26.444H71.9775V29.1103Z" fill="#1E9CD7"/>
</g>
<path id="Vector_21" d="M99.9982 54.6099H0.542969V55.7872H99.9982V54.6099Z" fill="#1E9CD7"/>
<path id="Vector_22" d="M99.9982 52.3473H0.542969V53.7193H99.9982V52.3473Z" fill="#1E9CD7"/>
<path id="Vector_23" d="M74.2594 6.85083C74.0542 7.06656 73.7675 7.22573 73.5215 7.36911C73.7609 7.19547 73.9845 6.94686 74.2594 6.85083Z" fill="black"/>
<path id="Vector_24" d="M73.5228 7.36902C79.921 14.3381 89.0514 23.971 95.155 31.0203L95.1352 31.0388C88.7225 24.3643 79.754 14.3224 73.5215 7.37034L73.5228 7.36902Z" fill="black"/>
<path id="Vector_25" d="M12.3672 17.6504C12.4974 17.7028 12.6434 17.8405 12.7566 17.9231C12.7566 17.9335 12.5553 17.7972 12.554 17.7985C12.4895 17.7579 12.4106 17.712 12.3685 17.6504H12.3672Z" fill="black"/>
<path id="Vector_26" d="M12.7564 17.9241C9.79275 22.0045 6.72123 26.5598 3.54448 30.4561L3.52344 30.4403C4.9441 28.2686 6.48314 26.1823 8.05508 24.1197C9.22712 22.5978 11.5659 19.3658 12.7564 17.9241Z" fill="black"/>
<path id="Vector_27" d="M27.6699 13.1741C27.7804 13.2017 27.8817 13.2793 27.9672 13.3411C27.8686 13.2885 27.741 13.2596 27.6699 13.1741Z" fill="black"/>
<path id="Vector_28" d="M27.9673 13.3411C26.4006 15.4129 24.2854 18.3844 22.6345 20.3431L22.624 20.3352C24.071 18.2502 26.3875 15.3392 27.9673 13.3411Z" fill="black"/>
<path id="Vector_29" d="M27.2666 12.4137C31.8561 14.6749 38.4122 17.7925 42.8754 20.1418L42.8702 20.1537C38.3346 18.0332 31.7732 14.6973 27.2666 12.4137Z" fill="black"/>
<path id="Vector_30" d="M11.7363 15.5299L32.9962 30.4468L76.4973 3.8634L32.9962 24.3682L11.7363 15.5299Z" fill="#1E9CD7"/>
<g id="Group_3">
<path id="Vector_31" d="M5.33405 46.2845C3.13466 46.2845 1.55352 44.5034 1.55352 41.8318C1.55352 39.7219 2.82685 37.7277 5.21303 37.7277C6.73892 37.7277 7.67418 38.3473 8.05829 39.9152L8.47922 39.8179C8.39504 39.0142 8.29243 38.4051 8.17931 37.6014C7.78599 37.533 6.77575 37.1949 5.5774 37.1949C2.32962 37.1949 0 39.1497 0 42.1317C0 44.3679 1.61008 46.8357 5.22223 46.8357C6.26142 46.8357 7.4966 46.5252 7.90833 46.4292C8.15168 45.9741 8.53579 44.8612 8.72258 44.1838L8.32006 44.0194C7.58079 45.4808 6.78496 46.2845 5.33405 46.2845Z" fill="#1D1D1B"/>
<path id="Vector_32" d="M12.9243 40.2744H12.9151C11.5958 40.2744 9.76074 41.3583 9.76074 43.6722C9.76074 45.2309 10.9209 46.7792 12.9151 46.7792C14.3279 46.7792 16.013 45.6953 16.013 43.4104C16.013 41.6977 14.7028 40.2744 12.9243 40.2744ZM13.0651 46.2859C11.9417 46.2859 11.1932 44.9797 11.1932 43.1881C11.1932 41.5912 11.9417 40.7493 12.7468 40.7493H12.7652C13.9346 40.7493 14.5897 42.0463 14.5897 43.7406C14.5897 45.7242 13.8688 46.2859 13.0638 46.2859H13.0651Z" fill="#1D1D1B"/>
<path id="Vector_33" d="M19.4765 42.8487C18.8491 42.5975 18.3255 42.2581 18.3255 41.678C18.3255 41.0979 18.6807 40.7388 19.1871 40.7388C19.8698 40.7388 20.3565 41.3294 20.6288 42.1621L21.0037 42.0463C20.9761 41.7069 20.8077 40.8361 20.6854 40.527C20.4052 40.4007 20.0303 40.2758 19.4318 40.2758C18.1216 40.2758 17.2798 41.1282 17.2798 42.1345C17.2798 43.2578 18.244 43.7419 19.049 44.1194C19.7607 44.4483 20.125 44.7679 20.125 45.348C20.125 45.9281 19.6765 46.307 19.17 46.307C18.3466 46.307 17.7191 45.4651 17.4573 44.5167L17.0732 44.5746C17.0917 45.1362 17.2232 46.1333 17.3166 46.3175C17.5507 46.5214 18.2058 46.7818 18.9267 46.7818C20.0777 46.7818 21.2576 46.1241 21.2576 44.7982C21.2576 43.8011 20.5368 43.2881 19.4792 42.8527L19.4765 42.8487Z" fill="#1D1D1B"/>
<path id="Vector_34" d="M24.8668 45.9374C24.5208 45.9374 24.0433 45.744 24.0433 44.6022V41.0308H25.5035C25.6902 40.9046 25.7376 40.5954 25.5969 40.4402H24.0433V38.4658L23.8566 38.4276L22.8358 39.4155V40.4415H22.2083L21.8242 40.8677L21.89 41.0322H22.8358V45.0981C22.8358 46.2399 23.3501 46.7819 24.2775 46.7819C24.3985 46.7819 24.6142 46.7332 24.8668 46.5885L25.831 46.0847L25.71 45.698C25.5035 45.8045 25.1957 45.94 24.8681 45.94L24.8668 45.9374Z" fill="#1D1D1B"/>
<path id="Vector_35" d="M31.4846 45.8111C31.2321 45.8111 30.9887 45.598 30.9887 44.9692V42.4238C30.9887 41.6688 30.8387 41.0782 30.3244 40.6335C30.0061 40.3823 29.6036 40.2758 29.1642 40.2758C28.3881 40.431 27.4423 40.9729 27.0398 41.2729C26.7688 41.4662 26.5912 41.6412 26.5912 41.8529C26.5912 42.1923 26.9556 42.4817 27.2279 42.4817C27.4436 42.4817 27.5923 42.3844 27.6778 42.1331C27.7988 41.678 27.9211 41.3583 28.0987 41.1755C28.2395 41.0203 28.4447 40.9243 28.688 40.9243C29.3523 40.9243 29.8022 41.4662 29.8022 42.483V42.7343C29.5023 42.9961 28.5381 43.3631 27.6502 43.6538C26.8925 43.905 26.5176 44.3312 26.5176 45.0376C26.5176 45.9281 27.2003 46.7792 28.2395 46.7792C28.6328 46.7792 29.2879 46.2662 29.8495 45.8979C29.9153 46.1202 29.9995 46.3136 30.1863 46.4977C30.3363 46.6529 30.6349 46.7779 30.8979 46.7779L32.1239 46.0321L31.9832 45.6545C31.8332 45.7413 31.6464 45.8097 31.4872 45.8097L31.4846 45.8111ZM29.7996 45.4335C29.5562 45.6848 29.1076 45.8979 28.7788 45.8979C28.3671 45.8979 27.8238 45.569 27.8238 44.8232C27.8238 44.301 28.1237 44.0195 28.6657 43.7774C28.9564 43.6419 29.5167 43.3709 29.7982 43.2263V45.4335H29.7996Z" fill="#1D1D1B"/>
<path id="Vector_36" d="M37.5029 41.6674V41.6188C38.3171 41.4149 39.4497 40.8637 39.4497 39.518C39.4497 38.8603 39.1498 38.2407 38.6631 37.9014C38.1948 37.5725 37.5871 37.4081 36.5203 37.4081H32.8147V37.8343C33.9197 37.9119 33.9841 37.9987 33.9841 39.2089V44.8323C33.9841 46.0228 33.8907 46.1201 32.6924 46.2069V46.6134H35.9125C37.0267 46.6134 37.9804 46.449 38.7012 46.0517C39.5247 45.5874 40.0298 44.8521 40.0298 43.9023C40.0298 42.479 38.9354 41.8595 37.5029 41.6661V41.6674ZM35.2851 38.7445C35.2851 38.3091 35.3219 38.1447 35.4443 38.0566C35.5666 37.9592 35.8836 37.8829 36.2217 37.8829C37.495 37.8829 38.0462 38.6867 38.0462 39.7022C38.0462 40.8729 37.4095 41.4833 35.8941 41.4833H35.2864V38.7445H35.2851ZM36.4361 46.1109C35.5561 46.1201 35.2851 45.8492 35.2851 44.7942V41.9779H35.8652C37.5687 41.9779 38.5237 42.6264 38.5237 44.0497C38.5237 45.4729 37.5318 46.0925 36.4361 46.1109Z" fill="#1D1D1B"/>
<path id="Vector_37" d="M42.8949 45.1046V36.5477C42.3898 36.7122 41.4914 36.9542 40.7429 37.041V37.3896C41.6045 37.4764 41.6979 37.5054 41.6979 38.4643V45.1046C41.6979 46.053 41.5769 46.1306 40.7061 46.2371V46.6147H43.9262V46.2371C43.0186 46.1503 42.8962 46.0635 42.8962 45.1046H42.8949Z" fill="#1D1D1B"/>
<path id="Vector_38" d="M49.634 45.8111C49.3815 45.8111 49.1381 45.598 49.1381 44.9692V42.4238C49.1381 41.6688 48.9882 41.0782 48.4738 40.6335C48.1555 40.3823 47.753 40.2758 47.3136 40.2758C46.5375 40.431 45.5917 40.9729 45.1892 41.2729C44.9182 41.4662 44.7407 41.6412 44.7407 41.8529C44.7407 42.1923 45.105 42.4817 45.3773 42.4817C45.593 42.4817 45.7417 42.3844 45.8272 42.1331C45.9482 41.678 46.0705 41.3583 46.2481 41.1755C46.3889 41.0203 46.5941 40.9243 46.8374 40.9243C47.5017 40.9243 47.9516 41.4662 47.9516 42.483V42.7343C47.6517 42.9961 46.6875 43.3631 45.7996 43.6538C45.0419 43.905 44.667 44.3312 44.667 45.0376C44.667 45.9281 45.3497 46.7792 46.3889 46.7792C46.7822 46.7792 47.4373 46.2662 47.999 45.8979C48.0647 46.1202 48.1489 46.3136 48.3357 46.4977C48.4857 46.6529 48.7843 46.7779 49.0474 46.7779L50.2733 46.0321L50.1326 45.6545C49.9826 45.7413 49.7958 45.8097 49.6367 45.8097L49.634 45.8111ZM47.949 45.4335C47.7056 45.6848 47.2571 45.8979 46.9282 45.8979C46.5165 45.8979 45.9732 45.569 45.9732 44.8232C45.9732 44.301 46.2731 44.0195 46.8151 43.7774C47.1058 43.6419 47.6662 43.3709 47.9477 43.2263V45.4335H47.949Z" fill="#1D1D1B"/>
<path id="Vector_39" d="M56.7367 45.123V42.4803C56.7367 41.0768 56.0342 40.273 54.9306 40.273C54.5189 40.273 54.1729 40.4283 53.7796 40.6887C53.4244 40.9308 53.1245 41.1531 52.8443 41.3662V40.2244C52.1985 40.4953 51.4776 40.6795 50.8133 40.7861V41.1438C51.5434 41.2793 51.6368 41.3372 51.6368 42.2567V45.102C51.6368 46.0504 51.5618 46.1188 50.6357 46.2345V46.6121H53.7244V46.2345C52.9193 46.1477 52.8443 46.0898 52.8443 45.1217V41.8502C53.2653 41.4924 53.7796 41.1531 54.3045 41.1531C55.1555 41.1531 55.5396 41.7437 55.5396 42.7316V45.0349C55.5396 46.032 55.4462 46.1477 54.6504 46.2345V46.6121H57.6272V46.2345C56.8222 46.128 56.738 46.0898 56.738 45.1217L56.7367 45.123Z" fill="#1D1D1B"/>
<path id="Vector_40" d="M61.7445 45.7532C60.996 45.7532 59.6293 45.1244 59.6293 43.1789C59.6293 41.678 60.4159 40.9624 61.2762 40.9624C61.7721 40.9624 62.2496 41.1558 62.6982 41.5728C62.8205 41.699 62.885 41.7372 62.9692 41.7372C63.1467 41.7372 63.4559 41.4175 63.4559 41.0887C63.4559 40.9335 63.419 40.8085 63.2309 40.6533C63.006 40.4507 62.5482 40.2758 61.9773 40.2758H61.9589C61.4262 40.2758 60.583 40.4981 59.8161 41.0795C58.8795 41.7964 58.4033 42.754 58.4033 43.8287C58.4033 45.3296 59.4517 46.7805 61.267 46.7805C62.0812 46.7805 63.027 46.1518 63.6532 45.3099L63.419 44.9902C62.7916 45.5901 62.3246 45.7545 61.7432 45.7545L61.7445 45.7532Z" fill="#1D1D1B"/>
<path id="Vector_41" d="M69.3818 45.8111C69.1292 45.8111 68.8859 45.598 68.8859 44.9692V42.4238C68.8859 41.6688 68.7359 41.0782 68.2216 40.6335C67.9032 40.3823 67.5007 40.2758 67.0614 40.2758C66.284 40.431 65.3395 40.9729 64.937 41.2729C64.666 41.4662 64.4871 41.6412 64.4871 41.8529C64.4871 42.1923 64.8515 42.4817 65.1238 42.4817C65.3395 42.4817 65.4881 42.3844 65.5723 42.1331C65.6946 41.678 65.8157 41.3583 65.9933 41.1755C66.134 41.0203 66.3392 40.9243 66.5826 40.9243C67.2468 40.9243 67.6967 41.4662 67.6967 42.483V42.7343C67.3968 42.9961 66.4339 43.3631 65.5447 43.6538C64.787 43.905 64.4121 44.3312 64.4121 45.0376C64.4121 45.9281 65.0948 46.7792 66.134 46.7792C66.5273 46.7792 67.1824 46.2662 67.7441 45.8979C67.8099 46.1202 67.894 46.3136 68.0808 46.4977C68.2308 46.6529 68.5307 46.7779 68.7925 46.7779L70.0184 46.0321L69.8777 45.6545C69.7277 45.7413 69.541 45.8097 69.3818 45.8097V45.8111ZM67.6967 45.4335C67.4534 45.6848 67.0048 45.8979 66.676 45.8979C66.2642 45.8979 65.721 45.569 65.721 44.8232C65.721 44.301 66.0209 44.0195 66.5628 43.7774C66.8535 43.6419 67.4139 43.3709 67.6954 43.2263V45.4335H67.6967Z" fill="#1D1D1B"/>
<path id="Vector_42" d="M78.5549 37.4094H74.4179V37.8448C75.4939 37.9316 75.6162 37.9895 75.6162 39.2102V44.8245C75.6162 46.0347 75.4939 46.1215 74.2969 46.2083V46.6148H77.7788C79.5099 46.6148 80.9424 46.2464 82.0184 45.444C83.1128 44.6114 83.7784 43.3433 83.7784 41.6688C83.7784 40.3428 83.2733 39.3076 82.5801 38.6196C81.7093 37.7869 80.3439 37.4094 78.5562 37.4094H78.5549ZM78.4326 46.082C77.4026 46.082 76.9251 45.8202 76.9251 44.6982V38.9195C76.9251 38.3684 76.9724 38.1934 77.1027 38.0961C77.2526 37.9987 77.5986 37.9027 78.226 37.9027C79.2271 37.9027 80.0703 38.1158 80.7161 38.5604C81.7461 39.2287 82.2973 40.4283 82.2973 41.8898C82.2973 44.1155 81.0437 46.0807 78.4326 46.0807V46.082Z" fill="#1E9CD7"/>
<path id="Vector_43" d="M87.0254 45.0757V40.2455C86.3979 40.4967 85.6968 40.6612 84.9483 40.7874V41.1268C85.7718 41.2715 85.8191 41.3399 85.8191 42.2305V45.0757C85.8191 46.0623 85.7165 46.1504 84.8457 46.2372V46.6148H88.0093V46.2372C87.1201 46.1307 87.0267 46.0531 87.0267 45.0757H87.0254Z" fill="#1E9CD7"/>
<path id="Vector_44" d="M86.3237 39.0733C86.7538 39.0733 87.0721 38.7155 87.0721 38.3091C87.0721 37.8539 86.7538 37.5159 86.3421 37.5159C85.9304 37.5159 85.5752 37.8552 85.5752 38.3091C85.5752 38.7155 85.9304 39.0733 86.3237 39.0733Z" fill="#1C9AD6"/>
<path id="Vector_45" d="M98.5553 45.1519V42.4803C98.5553 41.057 97.8437 40.273 96.7401 40.273C96.3467 40.273 95.9916 40.4375 95.6917 40.6308C95.3549 40.8637 94.9616 41.1241 94.5499 41.4346C94.2592 40.7084 93.6606 40.273 92.9964 40.273C92.557 40.273 92.2189 40.4283 91.8454 40.6598C91.4244 40.9215 91.1245 41.182 90.8246 41.3859V40.2244C90.1695 40.5046 89.3921 40.6887 88.7936 40.7861V41.1438C89.5894 41.2701 89.6354 41.3569 89.6354 42.2567V45.1309C89.6354 46.0596 89.5039 46.1477 88.6055 46.2345V46.6121H91.6007V46.2345C90.964 46.1477 90.843 46.0609 90.843 45.1506V41.8502C91.2639 41.5108 91.7783 41.1531 92.3031 41.1531C93.099 41.1531 93.4817 41.695 93.4817 42.7605V45.1519C93.4817 46.0806 93.3607 46.149 92.5267 46.2359V46.6134H95.5877V46.2359C94.8301 46.149 94.6985 46.0622 94.6985 45.1717V42.4514C94.6985 42.2001 94.6801 42.0357 94.6617 41.8608C95.1852 41.4253 95.6917 41.1544 96.1402 41.1544C96.9453 41.1544 97.3386 41.7253 97.3386 42.7908V45.0757C97.3386 46.0819 97.1794 46.1504 96.4033 46.2372V46.6147H99.4538V46.2372C98.6487 46.1306 98.5553 46.0925 98.5553 45.1533V45.1519Z" fill="#1E9CD7"/>
</g>
</g>
</svg>
