<svg width="24" height="24" viewBox="0 0 24 24" fill="none" xmlns="http://www.w3.org/2000/svg">
<g id="house-measurements 1" clip-path="url(#clip0_57_292)">
<path id="Vector" fill-rule="evenodd" clip-rule="evenodd" d="M7.17773 9.29649L13.3301 4.46777L19.4824 9.4882V16.5894H7.17773V9.29649Z" fill="black"/>
<path id="Vector_2" d="M5.6416 9.85836L13.0373 3.71469L13.3209 3.47906L13.6045 3.71469L21.0002 9.85836L20.4329 10.409L13.3209 4.50092L6.20892 10.409L5.6416 9.85836Z" fill="black"/>
<g id="Group">
<path id="Vector_3" d="M8.3125 18.4757H18.3693V19.2468H8.3125V18.4757Z" fill="black"/>
<path id="Vector_4" d="M9.07961 20.521L7.69249 19.1338L7.41992 18.8612L7.69249 18.5887L9.07961 17.2016L9.62475 17.7467L8.51019 18.8612L9.62475 19.9758L9.07961 20.521Z" fill="black"/>
<path id="Vector_5" d="M17.0557 19.9758L18.1703 18.8612L17.0557 17.7467L17.6008 17.2016L18.988 18.5887L19.2605 18.8612L18.988 19.1338L17.6008 20.521L17.0557 19.9758Z" fill="black"/>
<path id="Vector_6" d="M5.04546 6.04488V16.1016H4.27441V6.04488H5.04546Z" fill="black"/>
<path id="Vector_7" d="M3 6.81266L4.38712 5.42554L4.65969 5.15297L4.93226 5.42554L6.31942 6.81266L5.77428 7.3578L4.65969 6.24324L3.54513 7.3578L3 6.81266Z" fill="black"/>
<path id="Vector_8" d="M3.54513 14.7887L4.65969 15.9033L5.77428 14.7887L6.31942 15.3339L4.93226 16.721L4.65969 16.9936L4.38712 16.721L3 15.3339L3.54513 14.7887Z" fill="black"/>
</g>
</g>
<defs>
<clipPath id="clip0_57_292">
<rect width="24" height="24" fill="white"/>
</clipPath>
</defs>
</svg>
