<svg width="24" height="24" viewBox="0 0 24 24" fill="none" xmlns="http://www.w3.org/2000/svg">
<g id="heart-love 1">
<rect width="24" height="24" fill="#1E9CD7"/>
<path id="Vector" d="M13.0321 17.784C12.4563 18.384 11.5201 18.384 10.9441 17.784C9.21609 15.9362 5.90409 12.4082 5.90409 12.384C4.41609 10.824 4.41609 8.256 5.90409 6.696C6.62409 5.928 7.58409 5.52 8.61609 5.52C9.64809 5.52 10.6081 5.928 11.3281 6.696L11.6161 7.056C11.8081 7.296 12.1921 7.296 12.3841 7.056L12.6241 6.744C12.6481 6.72 12.6481 6.72 12.6721 6.696C13.4163 5.904 14.3763 5.496 15.3841 5.496C16.4163 5.496 17.3763 5.904 18.0963 6.672C19.5841 8.232 19.5841 10.8 18.0963 12.36C18.0721 12.408 14.7841 15.936 13.0321 17.784Z" fill="white"/>
</g>
</svg>
