<svg width="24" height="24" viewBox="0 0 24 24" fill="none" xmlns="http://www.w3.org/2000/svg">
<g id="dimensions 2">
<path id="Vector" fill-rule="evenodd" clip-rule="evenodd" d="M4.80062 4.38231C4.80062 4.71516 4.41778 4.9024 4.15505 4.69804L1.60657 2.71589C1.40068 2.55575 1.40068 2.24456 1.60657 2.08442L4.15505 0.102273C4.41778 -0.102083 4.80062 0.0851547 4.80062 0.418013V1.60018H14.4005V0.418061C14.4005 0.0852024 14.7834 -0.102036 15.0461 0.10232L17.5946 2.08447C17.8006 2.24461 17.8006 2.5558 17.5946 2.71594L15.0461 4.69808C14.7834 4.90245 14.4005 4.7152 14.4005 4.38236V3.20018H4.80062V4.38231ZM15.2004 7.99996H4.00042C3.5586 7.99996 3.20042 8.35813 3.20042 8.79996V20C3.20042 20.4417 3.5586 20.8 4.00042 20.8H15.2004C15.6422 20.8 16.0004 20.4417 16.0004 20V8.79996C16.0004 8.35813 15.6422 7.99996 15.2004 7.99996ZM4.00042 6.39996C2.67494 6.39996 1.60042 7.47448 1.60042 8.79996V20C1.60042 21.3254 2.67494 22.4 4.00042 22.4H15.2004C16.5258 22.4 17.6004 21.3254 17.6004 20V8.79996C17.6004 7.47448 16.5258 6.39996 15.2004 6.39996H4.00042ZM23.5826 9.6H22.4004V19.2H23.5826C23.9154 19.2 24.1028 19.5829 23.8983 19.8456L21.9162 22.3941C21.7561 22.6 21.4449 22.6 21.2847 22.3941L19.3026 19.8456C19.0983 19.5829 19.2855 19.2 19.6183 19.2H20.8004V9.6H19.6183C19.2855 9.6 19.0982 9.21717 19.3026 8.95444L21.2847 6.40596C21.4449 6.20007 21.7561 6.20007 21.9162 6.40597L23.8983 8.95444C24.1026 9.21717 23.9154 9.6 23.5826 9.6Z" fill="black"/>
</g>
</svg>
