<svg width="30" height="30" viewBox="0 0 30 30" fill="none" xmlns="http://www.w3.org/2000/svg">
<g id="whatsapp (1) 2" clip-path="url(#clip0_57_310)">
<g id="Group">
<path id="Vector" d="M0.738281 29.2996L2.74869 21.9929C1.51256 19.855 0.853744 17.4262 0.860536 14.9432C0.860536 7.1629 7.21778 0.837158 15.0285 0.837158C18.8184 0.837158 22.3774 2.30527 25.0466 4.97088C27.7226 7.63648 29.1964 11.1816 29.1897 14.95C29.1897 22.7303 22.8324 29.056 15.0217 29.056H15.0149C12.6445 29.056 10.3149 28.4607 8.24336 27.3376L0.738281 29.2996ZM8.59654 24.7803L9.02443 25.0373C10.8311 26.1063 12.9026 26.6678 15.0149 26.6746H15.0217C21.508 26.6746 26.7921 21.4178 26.7921 14.95C26.7921 11.8176 25.5696 8.87457 23.3486 6.65549C21.1276 4.4364 18.1664 3.21861 15.0217 3.21861C8.52862 3.21861 3.2445 8.47541 3.2445 14.9432C3.2445 17.1555 3.86257 19.3137 5.04436 21.181L5.32283 21.6275L4.13424 25.9507L8.59654 24.7803Z" fill="black" fill-opacity="0.24"/>
<path id="Vector_2" d="M1.38086 28.5454L3.29924 21.5766C2.1187 19.5387 1.49489 17.2202 1.49489 14.855C1.49489 7.4385 7.55857 1.40509 14.9973 1.40509C18.6127 1.40509 22.0001 2.80821 24.549 5.34718C27.0978 7.88616 28.4997 11.267 28.4997 14.8617C28.4997 22.2781 22.4361 28.3115 14.9973 28.3115H14.9906C12.7301 28.3115 10.5099 27.7436 8.53788 26.6746L1.38086 28.5454Z" fill="url(#paint0_linear_57_310)"/>
<g id="Group_2">
<path id="Vector_3" d="M0.891602 29.0335L2.87706 21.8174C1.65627 19.7061 1.00563 17.3074 1.01234 14.8553C1.01234 7.17156 7.29067 0.924347 15.0044 0.924347C18.7473 0.924347 22.2621 2.37424 24.8981 5.00675C27.5409 7.63927 28.9965 11.1404 28.9898 14.862C28.9898 22.5457 22.7115 28.7929 14.9977 28.7929H14.991C12.65 28.7929 10.3493 28.205 8.30351 27.0958L0.891602 29.0335ZM8.65231 24.5702L9.07489 24.8241C10.8591 25.8798 12.9049 26.4344 14.991 26.441H14.9977C21.4035 26.441 26.622 21.2495 26.622 14.862C26.622 11.7684 25.4146 8.86199 23.2212 6.67045C21.0279 4.47891 18.1033 3.27624 14.9977 3.27624C8.58523 3.27624 3.36671 8.46778 3.36671 14.8553C3.36671 17.0402 3.9771 19.1716 5.14423 21.0157L5.41924 21.4566L4.24541 25.7261L8.65231 24.5702Z" fill="white"/>
<path id="Vector_4" d="M11.5032 9.02199C11.2416 8.4407 10.9666 8.42733 10.7184 8.42065C10.5172 8.41397 10.2824 8.41397 10.0477 8.41397C9.81291 8.41397 9.43728 8.50083 9.11532 8.84827C8.79335 9.19571 7.89453 10.0376 7.89453 11.7547C7.89453 13.4652 9.14886 15.1222 9.32325 15.3561C9.49765 15.5899 11.7447 19.218 15.293 20.6144C18.2444 21.777 18.8481 21.5431 19.4853 21.483C20.1292 21.4229 21.5512 20.6411 21.8464 19.826C22.1348 19.0108 22.1348 18.316 22.0476 18.169C21.9604 18.022 21.7256 17.9351 21.3768 17.7614C21.028 17.5877 19.3109 16.7458 18.9889 16.6255C18.667 16.5053 18.4322 16.4518 18.2041 16.7993C17.9694 17.1467 17.2986 17.9284 17.0974 18.1623C16.8961 18.3962 16.6882 18.4229 16.3394 18.2492C15.9906 18.0754 14.8637 17.708 13.5289 16.5186C12.4892 15.5966 11.7849 14.4541 11.5837 14.1066C11.3825 13.7592 11.5636 13.5721 11.738 13.3984C11.8923 13.2447 12.0868 12.9908 12.2612 12.7904C12.4356 12.5899 12.496 12.4429 12.61 12.2091C12.724 11.9752 12.6704 11.7748 12.5832 11.6011C12.496 11.4273 11.8118 9.71018 11.5032 9.02199Z" fill="white"/>
</g>
</g>
</g>
<defs>
<linearGradient id="paint0_linear_57_310" x1="14.9399" y1="28.5435" x2="14.9399" y2="1.40357" gradientUnits="userSpaceOnUse">
<stop stop-color="#20B038"/>
<stop offset="1" stop-color="#60D66A"/>
</linearGradient>
<clipPath id="clip0_57_310">
<rect width="30" height="30" fill="white"/>
</clipPath>
</defs>
</svg>
