<svg width="24" height="24" viewBox="0 0 24 24" fill="none" xmlns="http://www.w3.org/2000/svg">
<g id="edit-write-2 1" clip-path="url(#clip0_58_329)">
<g id="Clip path group">
<mask id="mask0_58_329" style="mask-type:luminance" maskUnits="userSpaceOnUse" x="0" y="0" width="24" height="24">
<g id="a">
<path id="Vector" d="M0 0H24V24H0V0Z" fill="white"/>
</g>
</mask>
<g mask="url(#mask0_58_329)">
<g id="Group">
<path id="Vector_2" d="M12.8577 15.4286L7.71484 16.3543L8.57199 11.1429L18.3948 1.35428C18.5543 1.1936 18.7439 1.06607 18.9527 0.979039C19.1616 0.892006 19.3857 0.847198 19.612 0.847198C19.8383 0.847198 20.0623 0.892006 20.2713 0.979039C20.4801 1.06607 20.6697 1.1936 20.8291 1.35428L22.6463 3.17142C22.8069 3.33078 22.9344 3.52038 23.0215 3.72929C23.1086 3.93819 23.1534 4.16226 23.1534 4.38857C23.1534 4.61487 23.1086 4.83894 23.0215 5.04785C22.9344 5.25675 22.8069 5.44635 22.6463 5.60571L12.8577 15.4286Z" stroke="#1E9CD7" stroke-linecap="round" stroke-linejoin="round"/>
<path id="Vector_3" d="M20.5717 16.2857V21.4286C20.5717 21.8832 20.391 22.3193 20.0696 22.6407C19.7482 22.9622 19.312 23.1428 18.8574 23.1428H2.57171C2.11704 23.1428 1.68102 22.9622 1.35952 22.6407C1.03803 22.3193 0.857422 21.8832 0.857422 21.4286V5.14284C0.857422 4.68818 1.03803 4.25215 1.35952 3.93066C1.68102 3.60918 2.11704 3.42856 2.57171 3.42856H7.71456" stroke="#1E9CD7" stroke-linecap="round" stroke-linejoin="round"/>
</g>
</g>
</g>
</g>
<defs>
<clipPath id="clip0_58_329">
<rect width="24" height="24" fill="white"/>
</clipPath>
</defs>
</svg>
